<svg width="406" height="409" viewBox="0 0 406 409" fill="none" xmlns="http://www.w3.org/2000/svg">
<path d="M320.017 153.155L320.047 153.154L320.116 153.162L320.229 153.16C333.869 152.847 346.202 159.225 354.022 169.324C359.215 176.03 362.406 184.363 362.686 193.454L364.185 193.408L362.686 193.454C363.392 216.305 345.383 235.511 322.532 236.299L322.412 236.303L322.394 236.307C322.388 236.307 322.383 236.307 322.377 236.308C322.36 236.309 322.34 236.31 322.317 236.312L271.889 237.898L269.828 237.963L270.524 239.904L287.557 287.441L287.569 287.479C287.579 287.515 287.595 287.572 287.619 287.637C295.231 309.156 283.98 332.904 262.457 340.631L262.964 342.043L262.457 340.631C240.953 348.353 217.177 337.209 209.351 315.768C209.331 315.697 209.306 315.625 209.277 315.553C209.265 315.524 209.249 315.489 209.23 315.45L192.166 268.027L191.468 266.088L189.838 267.348L149.862 298.249C131.712 312.277 105.543 308.952 91.5195 290.841C77.4953 272.73 80.8265 246.563 98.9332 232.514L138.903 201.537L140.533 200.273L138.829 199.112L97.092 170.656L96.247 171.896L97.0919 170.656C78.1504 157.744 73.2381 131.833 86.1297 112.887C99.0213 93.9388 124.951 89.0056 143.896 101.889L185.684 130.306L187.389 131.465L187.967 129.486L202.143 80.9976L202.176 80.886L202.177 80.8835L202.182 80.8692L202.195 80.8256C208.69 58.9148 231.764 46.2831 253.709 52.6862L253.71 52.6864C275.64 59.0709 288.331 82.0732 282.065 104.019C282.06 104.036 282.054 104.056 282.048 104.077C282.042 104.097 282.036 104.118 282.031 104.14C282.024 104.165 282.019 104.187 282.016 104.2L282.014 104.205L282.013 104.21L282.004 104.239L267.886 152.765L267.31 154.746L269.371 154.684L319.886 153.161L319.899 153.16C319.924 153.159 319.95 153.158 319.962 153.157L319.987 153.156L320.002 153.156L320.017 153.155ZM320.017 153.15C320.013 153.149 320.009 153.149 320.005 153.148L320.017 153.15Z" stroke="#EDB997" stroke-width="3"/>
<circle cx="243.676" cy="302.326" r="19.7494" transform="rotate(-105 243.676 302.326)" fill="#EDB997"/>
</svg>
